<svg id="Capa_1" enable-background="new 0 0 512 512" height="512" viewBox="0 0 512 512" width="512" xmlns="http://www.w3.org/2000/svg"><g><path d="m512 256c0 100.426-57.827 187.346-142 229.279-3.299 1.643-6.622-6.782-10-5.279-3.292 1.465-6.637 12.863-10 14.191-29.101 11.494-60.813 17.809-94 17.809-141.385 0-256-114.615-256-256s114.615-256 256-256 256 114.615 256 256z" fill="#453d83"/><path d="m420 85v252c0 8.284-6.716 15-15 15h-340c-8.284 0-15-6.716-15-15v-252c0-8.284 6.716-15 15-15h340c8.284 0 15 6.716 15 15z" fill="#3493f8"/><path d="m375 180h-250c-8.284 0-15-6.716-15-15v-30c0-8.284 6.716-15 15-15h250c8.284 0 15 6.716 15 15v30c0 8.284-6.716 15-15 15zm-295 157v-252c0-8.284 6.716-15 15-15h-30c-8.284 0-15 6.716-15 15v252c0 8.284 6.716 15 15 15h30c-8.284 0-15-6.716-15-15z" fill="#1380e2"/><path d="m475.559 189.347v164.032c-24.304 43.8-61.082 79.721-105.536 102.968h-159.464c-8.284 0-15-6.716-15-15v-252c0-8.284 6.716-15 15-15h250c8.284 0 15 6.716 15 15z" fill="#e9f3fe"/><path d="m215.559 189.347v267h-95c-8.284 0-15-6.716-15-15v-252c0-8.285 6.716-15 15-15h80c8.284 0 15 6.716 15 15z" fill="#a7d0fc"/><path d="m215.559 189.347v267h-67.5c-8.284 0-15-6.716-15-15v-252c0-8.285 6.716-15 15-15h52.5c8.284 0 15 6.716 15 15z" fill="#c8e2fd"/><path d="m445.559 238.347v107.887h-185c-8.284 0-15-6.715-15-15v-92.887c0-8.285 6.716-15 15-15h170c8.284 0 15 6.716 15 15z" fill="#c8e2fd"/><path d="m475.559 158.347v37h-370v-37c0-8.285 6.716-15 15-15h340c8.284 0 15 6.716 15 15z" fill="#86befb"/><path d="m148.059 143.347c-8.284 0-15 6.715-15 15v37h-27.5v-37c0-8.285 6.716-15 15-15z" fill="#76b6fa"/><path d="m136.059 169.347c0 4.142-3.358 7.5-7.5 7.5s-7.5-3.358-7.5-7.5 3.358-7.5 7.5-7.5 7.5 3.358 7.5 7.5zm22.25-7.25c-4.142 0-7.5 3.358-7.5 7.5s3.358 7.5 7.5 7.5 7.5-3.358 7.5-7.5-3.358-7.5-7.5-7.5zm29.75.25c-4.142 0-7.5 3.358-7.5 7.5s3.358 7.5 7.5 7.5 7.5-3.358 7.5-7.5-3.358-7.5-7.5-7.5z" fill="#3493f8"/><path d="m420 55v37h-370v-37c0-8.284 6.716-15 15-15h340c8.284 0 15 6.716 15 15z" fill="#86befb"/><path d="m95 40c-8.284 0-15 6.716-15 15v37h-30v-37c0-8.284 6.716-15 15-15z" fill="#76b6fa"/><path d="m80.5 66c0 4.142-3.358 7.5-7.5 7.5s-7.5-3.358-7.5-7.5 3.358-7.5 7.5-7.5 7.5 3.358 7.5 7.5zm22.25-7.25c-4.142 0-7.5 3.358-7.5 7.5s3.358 7.5 7.5 7.5 7.5-3.358 7.5-7.5-3.358-7.5-7.5-7.5zm29.75.25c-4.142 0-7.5 3.358-7.5 7.5s3.358 7.5 7.5 7.5 7.5-3.358 7.5-7.5-3.358-7.5-7.5-7.5z" fill="#3493f8"/><path d="m190 232.5c0 4.142-3.358 7.5-7.5 7.5h-55c-4.142 0-7.5-3.358-7.5-7.5s3.358-7.5 7.5-7.5h55c4.142 0 7.5 3.358 7.5 7.5z" fill="#76b6fa"/><path d="m182.5 332.834h-55c-4.142 0-7.5-3.358-7.5-7.5 0-4.142 3.358-7.5 7.5-7.5h55c4.142 0 7.5 3.358 7.5 7.5 0 4.142-3.358 7.5-7.5 7.5zm7.5 52.5c0-4.142-3.358-7.5-7.5-7.5h-55c-4.142 0-7.5 3.358-7.5 7.5 0 4.142 3.358 7.5 7.5 7.5h55c4.142 0 7.5-3.358 7.5-7.5zm-20-30c0-4.142-3.358-7.5-7.5-7.5h-35c-4.142 0-7.5 3.358-7.5 7.5 0 4.142 3.358 7.5 7.5 7.5h35c4.142 0 7.5-3.358 7.5-7.5zm0 60c0-4.142-3.358-7.5-7.5-7.5h-35c-4.142 0-7.5 3.358-7.5 7.5 0 4.142 3.358 7.5 7.5 7.5h35c4.142 0 7.5-3.358 7.5-7.5zm0-152.834c0-4.142-3.358-7.5-7.5-7.5h-35c-4.142 0-7.5 3.358-7.5 7.5 0 4.142 3.358 7.5 7.5 7.5h35c4.142 0 7.5-3.358 7.5-7.5z" fill="#86befb"/><path d="m372.963 395h-105.463c-4.142 0-7.5-3.358-7.5-7.5 0-4.142 3.358-7.5 7.5-7.5h105.463c4.142 0 7.5 3.358 7.5 7.5 0 4.142-3.358 7.5-7.5 7.5zm-72.963-147.5c0-4.142-3.358-7.5-7.5-7.5h-25c-4.142 0-7.5 3.358-7.5 7.5 0 4.142 3.358 7.5 7.5 7.5h25c4.142 0 7.5-3.358 7.5-7.5zm-25 25c0-4.142-3.358-7.5-7.5-7.5-4.142 0-7.5 3.358-7.5 7.5 0 4.142 3.358 7.5 7.5 7.5 4.142 0 7.5-3.358 7.5-7.5zm105.463 142.834c0-4.142-3.358-7.5-7.5-7.5h-105.463c-4.142 0-7.5 3.358-7.5 7.5 0 4.142 3.358 7.5 7.5 7.5h105.463c4.142 0 7.5-3.358 7.5-7.5zm18.487-144.212-17.583-14.127c-5.636-4.528-12.648-6.996-19.877-6.996-7.424 0-14.614 2.603-20.317 7.356l-42.346 35.288c-5.703 4.753-12.893 7.356-20.317 7.356h-32.951v31.234c0 8.284 6.716 15 15 15h185v-72.092l-21.573 3.554c-8.9 1.467-18.004-.923-25.036-6.573z" fill="#a7d0fc"/><path d="m495.759 410.8c-1.141 8.244-3.291 16.165-6.319 23.635l2.102 1.214c6.6 3.811 8.862 12.25 5.051 18.851-3.811 6.601-12.25 8.862-18.851 5.051l-2.121-1.225c-5.036 6.447-10.847 12.258-17.294 17.294l1.225 2.121c3.811 6.601 1.549 15.041-5.051 18.851-6.601 3.811-15.041 1.549-18.851-5.051l-1.214-2.103c-7.471 3.029-15.392 5.178-23.635 6.319v2.442c0 7.621-6.178 13.8-13.8 13.8s-13.8-6.179-13.8-13.8v-2.442c-8.243-1.141-16.164-3.29-23.635-6.319l-1.214 2.103c-3.811 6.6-12.25 8.862-18.851 5.051s-8.862-12.25-5.051-18.851l1.225-2.121c-6.447-5.036-12.258-10.847-17.294-17.294l-2.121 1.225c-6.601 3.811-15.041 1.549-18.851-5.051-3.811-6.601-1.549-15.041 5.051-18.851l2.102-1.214c-3.028-7.471-5.177-15.392-6.319-23.635h-2.443c-7.622 0-13.8-6.178-13.8-13.8s6.178-13.8 13.8-13.8h2.441c1.141-8.244 3.291-16.165 6.319-23.635l-2.102-1.214c-6.6-3.811-8.862-12.25-5.051-18.851 3.811-6.601 12.251-8.862 18.851-5.051l2.121 1.225c5.036-6.447 10.847-12.258 17.294-17.294l-1.225-2.121c-3.811-6.601-1.549-15.041 5.051-18.851 6.601-3.811 15.041-1.549 18.851 5.051l1.214 2.103c7.471-3.029 15.392-5.178 23.635-6.319v-2.443c0-7.621 6.178-13.8 13.8-13.8s13.8 6.179 13.8 13.8v2.441c8.243 1.142 16.164 3.291 23.635 6.319l1.214-2.103c3.811-6.6 12.25-8.862 18.851-5.051s8.862 12.25 5.051 18.851l-1.225 2.121c6.447 5.036 12.258 10.847 17.294 17.294l2.121-1.225c6.601-3.811 15.041-1.549 18.851 5.051 3.811 6.601 1.549 15.041-5.051 18.851l-2.102 1.214c3.028 7.471 5.177 15.392 6.319 23.635h2.441c7.622 0 13.8 6.178 13.8 13.8s-6.178 13.8-13.8 13.8h-2.439z" fill="#9bcf1b"/><path d="m465.407 397c0 37.78-30.627 68.407-68.407 68.407s-68.407-30.627-68.407-68.407 30.627-68.407 68.407-68.407 68.407 30.627 68.407 68.407z" fill="#71892e"/><path d="m397 321.093c-41.855 0-75.907 34.052-75.907 75.907s34.052 75.907 75.907 75.907 75.907-34.052 75.907-75.907-34.052-75.907-75.907-75.907zm0 136.814c-33.584 0-60.907-27.323-60.907-60.907s27.323-60.907 60.907-60.907 60.907 27.323 60.907 60.907-27.323 60.907-60.907 60.907z" fill="#7fa32f"/><path d="m389.481 372.803-25.053 25.052 25.053 25.052c2.929 2.929 2.929 7.678 0 10.606-2.93 2.929-7.678 2.929-10.607 0l-30.355-30.355c-1.406-1.406-2.196-3.314-2.196-5.303s.79-3.897 2.196-5.303l30.355-30.355c1.465-1.464 3.385-2.197 5.304-2.197s3.839.732 5.304 2.197c2.928 2.928 2.928 7.678-.001 10.606zm56 19.749-30.355-30.355c-2.93-2.929-7.678-2.929-10.607 0s-2.929 7.678 0 10.606l25.053 25.052-25.053 25.053c-2.929 2.929-2.929 7.678 0 10.606 1.465 1.464 3.385 2.196 5.304 2.196s3.839-.732 5.304-2.196l30.355-30.355c1.406-1.406 2.196-3.314 2.196-5.304s-.79-3.897-2.197-5.303z" fill="#f2fbdc"/></g></svg>